<svg width="191" height="43" viewBox="0 0 191 43" fill="none" xmlns="http://www.w3.org/2000/svg">
<path d="M89.0602 33.5283C88.6831 33.5283 88.3214 33.3785 88.0548 33.1119C87.7881 32.8453 87.6384 32.4836 87.6384 32.1065V20.7677C87.6384 15.8696 83.4227 11.8885 78.2474 11.8885C73.072 11.8885 68.8564 15.8696 68.8564 20.7677V32.1421C68.8564 32.5192 68.7066 32.8808 68.44 33.1474C68.1733 33.4141 67.8117 33.5639 67.4346 33.5639C67.0575 33.5639 66.6959 33.4141 66.4292 33.1474C66.1626 32.8808 66.0128 32.5192 66.0128 32.1421V20.7677C66.0128 14.3056 71.5009 9.04492 78.2474 9.04492C84.9938 9.04492 90.482 14.3056 90.482 20.7677V32.1421C90.4727 32.513 90.3188 32.8655 90.0532 33.1245C89.7875 33.3835 89.4312 33.5285 89.0602 33.5283V33.5283Z" fill="#185D66"/>
<path d="M108.517 33.5284C101.771 33.5284 96.2829 28.2677 96.2829 21.7985V10.4526C96.2829 10.0755 96.4327 9.71384 96.6993 9.4472C96.966 9.18056 97.3276 9.03076 97.7047 9.03076C98.0818 9.03076 98.4434 9.18056 98.7101 9.4472C98.9767 9.71384 99.1265 10.0755 99.1265 10.4526V21.827C99.1265 26.7251 103.342 30.7132 108.517 30.7132C113.693 30.7132 117.908 26.7251 117.908 21.827V10.4526C117.908 10.0755 118.058 9.71384 118.325 9.4472C118.592 9.18056 118.953 9.03076 119.33 9.03076C119.707 9.03076 120.069 9.18056 120.336 9.4472C120.602 9.71384 120.752 10.0755 120.752 10.4526V21.827C120.752 28.2677 115.264 33.5284 108.517 33.5284Z" fill="#185D66"/>
<path d="M190.577 20.1208V10.4526C190.577 10.0755 190.427 9.71384 190.16 9.4472C189.893 9.18056 189.532 9.03076 189.155 9.03076C188.778 9.03076 188.416 9.18056 188.149 9.4472C187.883 9.71384 187.733 10.0755 187.733 10.4526V21.7772C187.733 26.6611 183.517 30.635 178.342 30.635C173.167 30.635 168.951 26.6611 168.951 21.7772V10.4526C168.951 10.0755 168.801 9.71384 168.535 9.4472C168.268 9.18056 167.906 9.03076 167.529 9.03076C167.152 9.03076 166.79 9.18056 166.524 9.4472C166.257 9.71384 166.107 10.0755 166.107 10.4526V21.7772C166.107 28.2322 171.596 33.4786 178.342 33.4786C180.117 33.4868 181.874 33.1148 183.494 32.3877C185.114 31.6605 186.559 30.5951 187.733 29.263V31.1185C187.733 35.8246 183.524 39.6493 178.342 39.6493C176.084 39.6653 173.888 38.9132 172.115 37.5166C171.82 37.2983 171.452 37.2024 171.088 37.2489C170.724 37.2955 170.392 37.4808 170.162 37.7663C169.932 38.0517 169.821 38.4152 169.852 38.7807C169.883 39.1461 170.055 39.4854 170.33 39.7275C172.604 41.5438 175.432 42.5272 178.342 42.5142C185.088 42.5142 190.577 37.4099 190.577 31.1398V20.1208Z" fill="#30A9A6"/>
<path d="M138.631 33.4787C136.842 33.479 135.074 33.0833 133.456 32.3199C131.333 31.3215 129.54 29.7356 128.29 27.75C127.041 25.7644 126.386 23.4622 126.404 21.1161V1.9218C126.404 1.54472 126.554 1.18308 126.82 0.916436C127.087 0.649797 127.448 0.5 127.826 0.5C128.203 0.5 128.564 0.649797 128.831 0.916436C129.098 1.18308 129.247 1.54472 129.247 1.9218V21.1161C129.226 22.8048 129.659 24.4681 130.503 25.9312C131.346 27.3943 132.569 28.603 134.041 29.4303C135.513 30.2576 137.181 30.6729 138.87 30.6325C140.558 30.5921 142.204 30.0975 143.635 29.2007C145.066 28.3039 146.229 27.0381 147.002 25.5364C147.774 24.0346 148.128 22.3524 148.025 20.6667C147.923 18.981 147.368 17.3541 146.419 15.957C145.47 14.5599 144.163 13.4443 142.634 12.7275C141.495 12.1877 140.26 11.8849 139.001 11.8372C137.742 11.7895 136.487 11.9981 135.311 12.4502C135.137 12.5165 134.951 12.5478 134.764 12.5422C134.578 12.5366 134.394 12.4944 134.223 12.4178C134.053 12.3412 133.9 12.2318 133.772 12.0959C133.643 11.96 133.543 11.8002 133.477 11.6256C133.411 11.451 133.38 11.2651 133.385 11.0784C133.391 10.8918 133.433 10.7081 133.51 10.5377C133.586 10.3674 133.696 10.2139 133.832 10.0858C133.967 9.95778 134.127 9.85776 134.302 9.79147C135.98 9.15463 137.778 8.89473 139.568 9.03016C141.358 9.1656 143.097 9.69306 144.66 10.5752C146.224 11.4573 147.574 12.6725 148.615 14.1346C149.657 15.5968 150.364 17.2701 150.687 19.036C151.01 20.8019 150.94 22.6172 150.483 24.3532C150.026 26.0892 149.193 27.7035 148.043 29.0816C146.892 30.4598 145.453 31.568 143.826 32.3279C142.2 33.0878 140.426 33.4807 138.631 33.4787Z" fill="#30A9A6"/>
<path d="M60.8517 18.8413C60.8517 18.8413 60.8517 18.7773 60.8517 18.7418C60.2807 16.0573 58.8242 13.6426 56.7161 11.8853C54.6079 10.1281 51.9705 9.13016 49.2271 9.05186C46.4837 8.97356 43.7936 9.8194 41.5887 11.4536C39.3837 13.0878 37.7919 15.4155 37.0687 18.063C36.3456 20.7105 36.5331 23.5242 37.6011 26.0524C38.6691 28.5806 40.5557 30.6765 42.9579 32.0037C45.3602 33.3309 48.1387 33.8124 50.8474 33.3708C53.5562 32.9292 56.038 31.5902 57.8943 29.5688C58.1498 29.2907 58.2843 28.9225 58.2683 28.5452C58.2523 28.1679 58.0871 27.8124 57.809 27.5569C57.5309 27.3015 57.1627 27.1669 56.7854 27.1829C56.4081 27.1989 56.0526 27.3642 55.7972 27.6423C54.418 29.1408 52.589 30.1504 50.586 30.5188C48.5829 30.8872 46.5144 30.5944 44.6923 29.6846C42.8702 28.7749 41.3932 27.2974 40.484 25.475C39.5748 23.6526 39.2827 21.584 39.6518 19.581C40.0208 17.5781 41.0309 15.7495 42.5299 14.3708C44.0289 12.992 45.9355 12.138 47.9622 11.9374C49.9889 11.7367 52.0259 12.2004 53.7661 13.2585C55.5063 14.3166 56.8554 15.9117 57.61 17.8034H44.7498C44.3727 17.8034 44.0111 17.9532 43.7444 18.2198C43.4778 18.4865 43.328 18.8481 43.328 19.2252C43.328 19.6023 43.4778 19.9639 43.7444 20.2306C44.0111 20.4972 44.3727 20.647 44.7498 20.647H59.4867C59.8638 20.647 60.2255 20.4972 60.4921 20.2306C60.7587 19.9639 60.9085 19.6023 60.9085 19.2252C60.9072 19.0952 60.8881 18.9661 60.8517 18.8413Z" fill="#185D66"/>
<path d="M158.032 33.4787C157.655 33.4787 157.293 33.3289 157.026 33.0622C156.76 32.7956 156.61 32.434 156.61 32.0569V1.9218C156.61 1.54472 156.76 1.18308 157.026 0.916436C157.293 0.649797 157.655 0.5 158.032 0.5C158.409 0.5 158.77 0.649797 159.037 0.916436C159.304 1.18308 159.453 1.54472 159.453 1.9218V32.0569C159.453 32.434 159.304 32.7956 159.037 33.0622C158.77 33.3289 158.409 33.4787 158.032 33.4787Z" fill="#30A9A6"/>
<path d="M23.2593 9.03076C21.8768 9.03106 20.5157 9.37248 19.2967 10.0248C18.0777 10.677 17.0385 11.62 16.2712 12.7701C15.2667 11.269 13.8059 10.1309 12.1048 9.52382C10.4037 8.91678 8.55247 8.87303 6.82459 9.39904C5.09671 9.92506 3.58386 10.9929 2.50958 12.4449C1.43529 13.8968 0.856547 15.6559 0.858863 17.462V32.1066C0.858863 32.4837 1.00866 32.8453 1.2753 33.112C1.54194 33.3786 1.90358 33.5284 2.28066 33.5284C2.65775 33.5284 3.01939 33.3786 3.28603 33.112C3.55267 32.8453 3.70246 32.4837 3.70246 32.1066V17.462C3.70246 15.9839 4.28966 14.5662 5.33489 13.521C6.38011 12.4758 7.79774 11.8886 9.27591 11.8886C10.7541 11.8886 12.1717 12.4758 13.2169 13.521C14.2622 14.5662 14.8494 15.9839 14.8494 17.462V32.1066C14.8494 32.4837 14.9992 32.8453 15.2658 33.112C15.5324 33.3786 15.8941 33.5284 16.2712 33.5284C16.6483 33.5284 17.0099 33.3786 17.2765 33.112C17.5432 32.8453 17.693 32.4837 17.693 32.1066V17.462C17.6662 16.7138 17.7905 15.9679 18.0584 15.2688C18.3263 14.5697 18.7322 13.9318 19.2521 13.393C19.7719 12.8542 20.395 12.4257 21.0841 12.1331C21.7732 11.8404 22.5142 11.6896 23.2629 11.6896C24.0115 11.6896 24.7525 11.8404 25.4416 12.1331C26.1307 12.4257 26.7538 12.8542 27.2736 13.393C27.7935 13.9318 28.1995 14.5697 28.4673 15.2688C28.7352 15.9679 28.8595 16.7138 28.8328 17.462V32.1066C28.8328 32.4837 28.9826 32.8453 29.2492 33.112C29.5158 33.3786 29.8775 33.5284 30.2546 33.5284C30.6316 33.5284 30.9933 33.3786 31.2599 33.112C31.5266 32.8453 31.6764 32.4837 31.6764 32.1066V17.462C31.6773 16.3558 31.4603 15.2601 31.0378 14.2377C30.6153 13.2153 29.9956 12.2861 29.214 11.5032C28.4324 10.7203 27.5043 10.0989 26.4826 9.67473C25.4608 9.25052 24.3656 9.03169 23.2593 9.03076V9.03076Z" fill="#185D66"/>
</svg>
